<svg xmlns="http://www.w3.org/2000/svg" width="25.729" height="18.826" viewBox="0 0 25.729 18.826">
    <g id="Group_1600" data-name="Group 1600" transform="translate(-20.5 -50.501)">
        <g id="Group_1591" data-name="Group 1591" transform="translate(20 53.381)">
            <g id="Group_1590" data-name="Group 1590" transform="translate(0 0)">
                <path id="Path_53361" data-name="Path 53361"
                    d="M44.885,67.14h-.621V54.68a2.3,2.3,0,0,0-2.3-2.3h-17.2a2.3,2.3,0,0,0-2.3,2.3V67.14h-.621a.844.844,0,1,0,0,1.688H44.885a.844.844,0,1,0,0-1.688Zm-19.34,0H24.323V54.85a.612.612,0,0,1,.611-.611H41.8a.612.612,0,0,1,.611.611V67.14H25.545Z"
                    transform="translate(-20 -53.381)" fill="#707488" stroke="rgba(0,0,0,0)"
                    stroke-width="1" />
            </g>
        </g>
        <circle id="Ellipse_275" data-name="Ellipse 275" cx="2.25" cy="2.25" r="2.25"
            transform="translate(27.609 50.501)" fill="#fc4d4d" />
    </g>
</svg>
